<svg xmlns="http://www.w3.org/2000/svg" viewBox="0 0 589.8 456.11"><defs><style>.a{fill:#100226;}.b{fill:#2b0063;}.c{isolation:isolate;}.d{fill:#fff;}</style></defs><title>blhlogo</title><path class="a" d="M589.64,175.47q-.13-7.65-.62-15.13t-1.34-14.8q-.86-7.32-2.08-14.39t-2.82-13.9q-1.66-7.24-3.91-14a136.34,136.34,0,0,0-5.07-13.06,121.17,121.17,0,0,0-6.22-12,109,109,0,0,0-7.34-10.87A63.94,63.94,0,0,0,550,56.58a58.63,58.63,0,0,0-12.15-7.71A60.09,60.09,0,0,0,524,44.31,68.5,68.5,0,0,0,508.9,43a90.69,90.69,0,0,0-10.66.84,78.3,78.3,0,0,0-8.88,1.82C449.23,16,393.83-2.76,324.89.33,126.71,23.49-9.23,132.65,18.3,243.66c.11.49.24,1,.36,1.47-.27.12-.56.21-.82.34a32.67,32.67,0,0,0-4.48,2.64,28.9,28.9,0,0,0-3.79,3.18A27.19,27.19,0,0,0,6.46,255a27.79,27.79,0,0,0-2.41,4.21q-.83,1.83-1.49,3.74t-1.15,3.88q-.49,2-.8,4T.15,275Q0,276.83,0,278.73t.06,3.8q.08,1.9.24,3.8t.41,3.78c.14,1,.27,2,.4,3s.25,1.91.37,2.84.23,1.84.34,2.76.22,1.82.32,2.73.29,1.92.45,3,.35,2.15.54,3.32.41,2.39.63,3.68.47,2.63.72,4,.52,2.85.8,4.28.56,2.87.86,4.31.6,2.87.91,4.3.64,2.85,1,4.27.72,2.93,1.09,4.37.75,2.85,1.13,4.25.77,2.77,1.17,4.12.81,2.67,1.23,4q.7,2.23,1.41,4.21t1.44,3.73q.73,1.74,1.47,3.25t1.5,2.78a31,31,0,0,0,2.4,3.76,32.75,32.75,0,0,0,2.93,3.41,34.88,34.88,0,0,0,3.41,3,37.1,37.1,0,0,0,3.84,2.62q1.66,1,3.43,1.82t3.66,1.54q1.88.7,3.87,1.27t4.05,1q1.38.28,2.84.51t3,.41q1.52.18,3.09.3t3.17.18l.84,0h2.6c1.31,0,2.64,0,4-.06s2.69-.11,4-.21,2.7-.21,4-.34,2.66-.29,4-.47,2.63-.33,3.94-.53c39.21,48.72,93.62,78.79,162.82,74.1,66.93-4.44,130.27-34.38,184.89-77.29,1.07.62,2.13,1.24,3.26,1.84q2.39,1.26,5,2.46T442.8,385q2.75,1.14,5.66,2.21a70.81,70.81,0,0,0,7,2.1q3.71.92,7.89,1.6t8.9,1.11q4.72.43,10,.62a74.16,74.16,0,0,0,13.17-.66,66.3,66.3,0,0,0,12.37-3,65.4,65.4,0,0,0,11.55-5.31A71.56,71.56,0,0,0,530,376a112.44,112.44,0,0,0,8.47-8.1q4.09-4.33,7.85-9.21t7.21-10.31q3.45-5.44,6.54-11.41,3-5.75,5.65-11.86t5.06-12.6q2.38-6.5,4.43-13.32t3.76-14q1.7-7,3.12-14t2.59-14q1.16-7,2-13.89t1.45-13.72q.51-6,.88-12.44t.56-13.18q.2-6.78.21-13.88T589.64,175.47Z"/><path class="b" d="M361.88,375.89c4.48-1.41,7.35-4,8-8.56s-1.75-7.87-4.66-10.12l6.64-7c3.15,6,6.53,8.11,11.55,6.93a9.24,9.24,0,0,0,7.13-8.89c0-4.07-2.69-8.15-6.66-8.83a12,12,0,0,0-7.15.87c-2.06,1.08-3.42,3.51-4.56,4.76l-5.52-7.94,6.16-5.61c2.61,4.83,6.17,7,10.49,6.31a9.78,9.78,0,0,0,8-7.83c.81-4.35-1.27-7.89-6.71-11.07,4.72-1.4,7.82-4.16,8.17-9.1s-2.53-7.84-6.92-10.14c5.24-1.61,8.2-4.67,8.18-9.75a8.82,8.82,0,0,0-5.51-8.36c-5.54-2.51-9.46.2-12.56,4.2l-5.11-6.32L377,272.9c1.91,5.22,5.15,7.6,10.09,7.12a8.91,8.91,0,0,0,7.88-7.36,9.05,9.05,0,0,0-5.06-9.87c-4.52-2.13-8.23-.71-12.38,4.32l-7.6-7.76c5.5-2.34,7.87-5,7.84-9.54a9.47,9.47,0,0,0-6-8.74c-5.68-2-9.56.63-12.2,4.66l-6.94-7c4.42-1.47,7.46-4.52,7.41-9.79a9.2,9.2,0,0,0-6.31-8.5c-5.6-1.9-9.34.85-11.86,4.64L335,217.84c5.09-1.95,7.47-5.36,6.79-10.39a8.9,8.9,0,0,0-7.68-7.56,9,9,0,0,0-9.81,5.73c-1.74,4.58,0,8.56,5,11.86L322,223.21l-5.8-6.64c4.22-1.85,6.83-5.2,6.24-10.22a8.84,8.84,0,0,0-7-8c-5.55-1.44-9.15,1.37-11.79,6.19-1.56-4.69-4.21-7.66-9-8.05s-7.76,2.14-10.08,6.19c-1.74-4.45-4.39-7.3-9.08-7.62s-7.79,2.08-10.1,6.24c-1.81-4.52-4.53-7.29-9.2-7.57s-7.7,2.36-10.05,6.49c-1.84-4.88-4.82-7.76-9.77-7.7a8.88,8.88,0,0,0-8.54,5.75c-2.23,5.32.09,9.34,4,12.29l-6.3,5.61-6.49-6.58c5-2.17,7.15-5.28,6.69-10a9,9,0,0,0-7-7.87c-4-.83-8.15.77-9.94,4.29-2.91,5.73-.7,10.13,3.89,13.13l-7.25,6.12c-4.48-6.26-10.75-7.94-15.43-3.54a11.94,11.94,0,0,0-3.48,6.36c-.63,4.08,1.58,7.35,4.88,9.63l-5.86,4.91-6.63-5.91c4.92-1.79,7.47-4.92,7.25-9.17a9.17,9.17,0,0,0-6.9-8.7c-4.11-.93-8.56.73-10.06,4.51a11.85,11.85,0,0,0-.47,7.49c.76,2.32,3.1,4.12,4.32,5.61L165.61,233a9.18,9.18,0,0,0-9-6.76,9,9,0,0,0-8.56,5.7c-2.12,5.62.45,9.57,4.46,12.15L145.05,251c-1.92-4.71-4.81-6.92-9.3-6.77-3.87.13-7.67,2.72-8.27,6.41a12.49,12.49,0,0,0,.87,7.18c1,2,3.37,3.34,5.06,4.89-4,.68-7,3-8.05,7.1-1.29,5,.77,8.86,5.27,11.78-4.51,1.67-7.25,4.82-7.59,9.1s1.83,8,4,9.16l-6,6.1c-1.27-3.14-4.64-6-10-5.42a9.3,9.3,0,0,0-8,7.37c-1.09,5.42,1.6,9,6.35,11.41-10.22,4.37-9.17,15.3-1.32,19.05-10,4.41-9.63,14.64-1.11,19.31-7.33,4.18-9.66,9.8-5.71,14.9a12.37,12.37,0,0,0,6.39,4c4.41,1.1,7.55-1.72,9.77-4.6l5.93,6.34-6.9,7.32c-1.66-5.1-4.73-7.63-9.43-7.37a9,9,0,0,0-8.26,7.37,8.6,8.6,0,0,0,5.35,9.63c1.73.61,4.07,1.08,5.58.39,2.6-1.18,4.77-3.32,6.68-4.72l6.54,7.72c-4.42,1.73-6.84,4.75-6.85,9a9.15,9.15,0,0,0,6,8.68c5.34,1.71,9.23-.47,11.73-4.65l6.27,6.93c-1.77,2.07-4.13,4.27-5.73,6.92-1.19,2-.54,4,2,5.21s4.81,2.8,7.21,4.21c3.22,1.89,4.89,1.53,7-1.58.62-.91,1.1-1.92,1.77-3.09.86,4.88,3.49,8,8.12,8.83s8.25-1.5,10.43-4.87l6.49,6.56-6.34,6a190.18,190.18,0,0,0,76.32,8.56l.94-1.06L242.79,445l6-4.8a28.41,28.41,0,0,0,2.63,3.36,33.07,33.07,0,0,0,3.69,2.73c-5.31,2.24-7.12,4.65-6.77,9,4.55-.42,9.11-.79,13.66-1.29a37.43,37.43,0,0,0,4.58-1.18l-5.29-6,7.35-6.94c1.18,3.86,3.88,7.11,9,7.41s8.2-2.83,10.36-7.47c1.65,6,4.68,8.44,8.81,7.32a24.43,24.43,0,0,0,5.62-2c1.41-.8,3-2.05,3.55-3.47a8.85,8.85,0,0,0-5-11,9.18,9.18,0,0,0-11.61,3.64c-.49.8-.88,1.65-1,1.92l-5-7.51,5.91-5.07c2.16,3.42,5.14,6,9.48,5.89s7.42-2.48,9.55-6.52c2.12,4.72,5.18,7.34,10,7.09a8.92,8.92,0,0,0,8.33-6.05c2-5.27-.31-9.17-4.29-12.07L329,406.2c4.12,6.36,9.93,8.31,14.76,4.34a12.65,12.65,0,0,0,3.92-6.45c1.07-4.47-1.74-7.65-4.71-9.91l6.72-6.21c2.32,4.6,5.73,6.92,9.82,6.53a9.31,9.31,0,0,0,8.2-6.71C369.29,382.26,366.61,378.64,361.88,375.89Zm14-81.89,5.43,5.51-6.91,4.8-3.9-4.85Zm-3,19.74,5.59,5.84-5.35,4-4.54-5.76Zm-250,44.13-4,4.17-5.1-4.95,5.5-3.75,4.48,5.48Zm-2-14.32-5.62-5.4,5.34-4,4.46,5.47Zm.2-18.06,1.16-1.09-5.65-5.87,5-4.61,4.69,6.69Zm239.18-70.94,5,4.78-7.34,4.89L354,259.68Zm-2.85,19,4.7,5.17-5.62,4.52-4.23-5.07ZM341,232.49l6.05,6.24-5.81,4-5.87-5.32Zm-19-.67,4.69,5.66L320.87,242l-4.13-4.33Zm-17.89-20.7,4.11,5.31-5.82,4.51-3.81-4.13Zm-2.42,19.82,5.2,5.44-5.57,4.88-5.07-5.84Zm-1,19.24,4.46,5.46-5.25,4.8L295.5,255Zm-16-40.35,4,5.25-5.56,4.45-4-4.4Zm-2.21,19.79,4.81,5.26-5.46,4.46-4.8-5.25Zm-1.36,19.7,4.28,4.94-4.91,4.3-4.3-4.92ZM260.34,214l5.2-5.63,4.09,5.43-5.44,4.41-5-5.42Zm3.12,14.3,4.82,5.23-5.48,4.5L258,232.74ZM262.11,248l4.27,4.93-4.89,4.3-4.31-4.9Zm-1.35,19.13,4.28,5-4.95,4.27-4.29-4.94Zm-14.22-60.2,4,5.5-4.62,3.74-4.5-4.08Zm-2.21,20,4.86,5.3-5.5,4.48-4.84-5.3ZM243,246.6l4.28,5-5,4.28-4.27-4.95Zm-1.37,19.14,4.27,4.93L241,274.95,236.69,270Zm-16.77-41.07,5.1,6.11-5.73,5-5.43-5.93Zm-1.28,20,4.49,5.49L222.81,255l-4.47-5.47Zm-1.36,19.14,4.49,5.49-5.26,4.82L217,268.64Zm-1.14,19.41,4.29,5.23-4.86,4.21-4-4.48Zm-1.3,19.45,4.8,5.26-5.48,4.5-4.8-5.26ZM205.92,224l4.57,5.31-5.71,4.54L201,229.8Zm-1.86,19.84,4.27,4.94-4.89,4.3-4.3-4.9ZM202.7,263l4.27,4.94L202,272.22l-4.27-4.94Zm-1.41,19.14,4.3,4.76-5.08,4.41-4.06-4.93Zm-.93,18.65,5,5.78-5.77,5-5-5.78Zm-15.62-58.71,4.43,5.4-4.82,4.23-4.68-5.17Zm-1.15,19.56,4.27,4.93-4.92,4.26-4.29-4.92Zm-1.39,19.13,4.3,4.89-4.9,4.3L177.25,285ZM180.85,300l4.8,5.28-5.49,4.47-4.78-5.25Zm-15.21-60.47,4.7,6.5-4.86,4.15-5.2-6.1Zm3,25.74-4.82,4.24-4.64-5.16,5.07-4.45Zm-5.59,14.17,4.3,4.92-4.93,4.32-4.28-4.94Zm-17.93-22.06,4.69,6.4-5.38,4.71-6.38-5.71Zm3,25.66-5,4.41L138.28,282l5.36-4.55ZM134.49,404.88l-5.38-6.31,6.7-5,5.06,5.36Zm2.08-21.25-4.81-5.18,5.45-4.1,4.14,4.88Zm1.25-19.16-4.38-5,5.07-4.29,4.26,4.92Zm1.41-19.18-4.3-4.92,4.93-4.32,4.28,4.94Zm1.37-19.15-4.29-4.88,4.89-4.3,4.33,4.92Zm2.26-19.94-5.5-5.06,5.17-4.1,4.85,5.44ZM152.45,426l-5.38-6.87,6.36-4.67,4.8,5.41ZM154,404.91l-5-5.34,5.91-4.66,4.77,5.22Zm1.59-20L151.33,380l4.9-4.3,4.3,4.9ZM157,365.78l-4.3-4.9,4.93-4.33,4.27,4.94Zm1.34-19.12-4.27-4.93,4.93-4.28,4.28,4.93Zm1.37-19.12-4.27-4.93,4.93-4.27,4.27,4.93Zm1.38-19.22-4.83-5.22,5.44-4.48,4.85,5.24Zm10.63,117.78-4.64-5.49,5.61-4.53,4.46,5ZM173.34,406l-4.79-5.29,5.49-4.47,4.78,5.25Zm1.37-19.73-4.27-4.95,4.95-4.29,4.28,5Zm1.37-19.12-4.28-5,5-4.28,4.27,4.95ZM177.45,348l-4.27-4.93,4.92-4.26,4.29,4.92Zm1.38-19.12-4.3-4.91,4.92-4.3,4.32,4.93Zm11.37,119.18-5.65-7.25,6.19-5.14,5.5,6.21Zm-3.53-26.37,5.52-4.85,3.77,4.54-5.12,5.71Zm6.07-13.83-5-5.79,5.76-5,5,5.77Zm1.39-19.72-4.5-5.48,5.26-4.8,4.5,5.48ZM195.5,369,191,363.59l5.23-4.82,4.5,5.48Zm1.35-19.12-4.46-5.46,5.25-4.8,4.48,5.45Zm1.38-19.1-4.49-5.47,5.25-4.8,4.51,5.42Zm10.13,117.08-4-5.54,5.84-4.6,4.1,4.33Zm2.5-19.75L206.51,423l5.06-4.27,4.38,4.94Zm1.42-19.44-4.8-5.25,5.45-4.48,4.81,5.26Zm1.36-19.7-4.27-4.95,4.94-4.29,4.28,5ZM215,369.89l-4.28-5,4.95-4.27,4.29,4.95Zm1.4-19.13-4.3-4.92,4.93-4.32,4.28,4.94Zm1.33-19.12-4.28-5,4.95-4.27,4.29,4.95Zm10.8,119.09-5-7,4.83-3.84,5.55,5.31Zm1.5-21.2-4.35-5.18,5-4.22,4.44,4.92Zm1.36-19.43-4.8-5.26,5.48-4.5,4.8,5.26Zm1.38-19.72-4.27-4.94,4.89-4.3,4.3,4.9Zm1.36-19.15-4.27-4.93L234.8,362l4.27,4.93Zm1.39-19.13-4.3-4.9,4.9-4.3,4.33,4.93ZM236.84,333l-4.23-4.88,5.1-4.55,4.67,4.88Zm1.87-20.09-4.93-4.64,5.15-4.2,4.22,4.88Zm.91-18.82-4.29-4.88,4.89-4.3,4.33,4.92Zm9.61,137.09-4.44-5.41,5-4.23,4.56,5Zm1.29-19.68-4.82-5.26,5.49-4.49L256,407Zm1.4-19.74-4.3-4.9,4.93-4.33,4.27,4.93Zm1.34-19.12L249,367.67l4.93-4.27,4.27,4.93Zm1.37-19.12-4.27-4.93,4.93-4.27,4.27,4.93Zm1.39-19.2L251.16,329l5.47-4.49,4.85,5.26Zm1.35-19.73-4.28-4.93,4.93-4.27,4.27,4.93Zm1.37-19.12-4.28-4.93,4.93-4.27,4.27,4.93Zm14.77,131.81-5.61,5.48-4-5.58,5.41-4.74,5.29,5.89Zm-3.55-13.89-5-5.78,5.79-5,5,5.79Zm1-20.15-4.15-5,4.83-4.25,4.17,4.64ZM272.41,374,268.08,369l4.93-4.27,4.3,4.89Zm1.37-19.13-4.3-4.89,4.92-4.33,4.26,4.93Zm1.32-19.18-4.81-5.26,5.49-4.49,4.82,5.26Zm1.37-19.73L272.2,311l4.94-4.27,4.27,4.94Zm1.37-19.12-4.28-4.93,4.93-4.27,4.27,4.93Zm1.39-19.14-4.29-4.88,4.89-4.3,4.33,4.92ZM289.4,414.13,284.66,409l5.44-4.54,4.47,5Zm1.44-19.67-4.07-4.58,4.75-4.79,4.19,5.12Zm.93-18.58-4.47-5.49,5.25-4.78,4.5,5.47Zm1.39-19.13-4.5-5.48,5.26-4.79,4.48,5.44Zm1.36-19.21-5-5.77,5.79-5,5,5.79Zm1.35-19.71-4.48-5.49,5.25-4.78,4.5,5.47Zm1.38-19.11-4.49-5.46,5.26-4.85,4.49,5.46Zm1.36-19.13-4.49-5.49,5.26-4.82,4.49,5.49Zm10.21,136.47-4.71-6,4.42-3.73,5.52,5.2ZM310,396l-4.31-5.12,4.9-4.25,4.39,5Zm1.31-19.29L307,371.77,312,367.5l4.27,4.94Zm1.36-19.11-4.27-4.95,4.95-4.29,4.28,5Zm1.37-19.2-4.81-5.26,5.49-4.49,4.82,5.26Zm1.38-19.74-4.27-4.93,4.93-4.27,4.27,4.93Zm1.37-19.12-4.28-4.93,4.93-4.27,4.27,4.93Zm1.35-19.11-4.27-4.95,4.95-4.29,4.28,5Zm1.41-19.14-4.33-4.92,4.93-4.26,4.29,4.88Zm9.83,136.86-4.62-5.91,5-4.32,5.17,5.44Zm1.13-19.88-4.32-5.15,4.89-4.26,4.44,5Zm1.3-19.32L327.52,354l4.93-4.27,4.27,4.93Zm1.37-19.2-4.81-5.26,5.46-4.46,4.8,5.25ZM334.56,320l-4.3-4.9,4.93-4.33,4.27,4.93Zm1.36-19.13-4.3-4.9,4.9-4.3,4.33,4.93Zm1.37-19.11L333,276.85l4.94-4.28,4.3,4.91Zm1.31-19.15-4.2-4.86,5-4.55,4.46,5Zm11.3,117.91-4.7-6,4.37-3.83,5.56,5.61Zm1.27-19.79-4.47-5.39,4.93-4.37,4.86,5.26Zm1.15-19.47-4.78-5.44,5.43-4.53L358,336.7Zm1.38-19.83-4.31-5,4.94-4.35,4.37,5Zm1.3-19.15-4.23-5,5-4.47,4.41,5.08Z"/><path class="b" d="M113.88,281a9.16,9.16,0,1,0,8.85,9.62A9.08,9.08,0,0,0,113.88,281Z"/><path class="b" d="M380,358.46a8.87,8.87,0,1,0,8.84,8.89A8.88,8.88,0,0,0,380,358.46Z"/><path class="b" d="M369.64,221.89a8.84,8.84,0,1,0,8.89,8.88A8.93,8.93,0,0,0,369.64,221.89Z"/><path class="b" d="M336.87,413.19a8.76,8.76,0,1,0,8.8,8.64A9,9,0,0,0,336.87,413.19Z"/><path class="b" d="M276.11,194.49a9.09,9.09,0,0,0,8.78-9.07,8.76,8.76,0,0,0-17.52.33C267.42,190.37,271.64,194.59,276.11,194.49Z"/><path class="b" d="M351.84,201.54a8.7,8.7,0,1,0,8.79,8.61A8.88,8.88,0,0,0,351.84,201.54Z"/><path class="b" d="M115.07,279.75a8.73,8.73,0,1,0-8.84-8.61A8.92,8.92,0,0,0,115.07,279.75Z"/><path class="b" d="M357.4,395.51a8.69,8.69,0,1,0,8.69,8.7A8.87,8.87,0,0,0,357.4,395.51Z"/><path class="b" d="M387.37,259.92a8.69,8.69,0,1,0-8.62-8.77A8.86,8.86,0,0,0,387.37,259.92Z"/><path class="b" d="M197.56,208a8.69,8.69,0,1,0-8.66-8.72A8.87,8.87,0,0,0,197.56,208Z"/><path class="b" d="M295.2,195.78a8.74,8.74,0,1,0-8.68-8.79A9,9,0,0,0,295.2,195.78Z"/><path class="b" d="M257,193a8.67,8.67,0,1,0-8.64-8.44A8.86,8.86,0,0,0,257,193Z"/><path class="b" d="M403.19,302.24a8.4,8.4,0,1,0,8.36,8.43A8.24,8.24,0,0,0,403.19,302.24Z"/><path class="b" d="M314.46,196.83a8.44,8.44,0,1,0-8.53-8.34A8.32,8.32,0,0,0,314.46,196.83Z"/><path class="b" d="M158.14,224.66a8.27,8.27,0,1,0-8.43-8.28A8.14,8.14,0,0,0,158.14,224.66Z"/><path class="b" d="M93.1,300.36a8.23,8.23,0,1,0,8.23,8.15A8.16,8.16,0,0,0,93.1,300.36Z"/><path class="b" d="M137.36,242.42a8.27,8.27,0,1,0-8.14-8.56A8.14,8.14,0,0,0,137.36,242.42Z"/><path class="b" d="M378.71,378.2a8.25,8.25,0,1,0,8.1,8.31A8.16,8.16,0,0,0,378.71,378.2Z"/><path class="b" d="M90.32,338.53A8.3,8.3,0,1,0,98.67,347,8.14,8.14,0,0,0,90.32,338.53Z"/><path class="b" d="M238,191.25a8.33,8.33,0,1,0-8.4-8.34A8.17,8.17,0,0,0,238,191.25Z"/><path class="b" d="M401.86,321.42a8.34,8.34,0,1,0,8.27,8.49A8.17,8.17,0,0,0,401.86,321.42Z"/><path class="b" d="M91.93,319.37a8.34,8.34,0,1,0,8.14,8.62A8.17,8.17,0,0,0,91.93,319.37Z"/><path class="b" d="M404.63,283.2a8.31,8.31,0,1,0,8.19,8.18A8.16,8.16,0,0,0,404.63,283.2Z"/><path class="b" d="M333.94,197.94a8.18,8.18,0,1,0-7.95-8.5A8.23,8.23,0,0,0,333.94,197.94Z"/><path class="b" d="M388.55,240.23a8.13,8.13,0,1,0-7.87-8.21A8.27,8.27,0,0,0,388.55,240.23Z"/><path class="b" d="M89.24,357.82a8.14,8.14,0,1,0,7.9,8.21A8.27,8.27,0,0,0,89.24,357.82Z"/><path class="b" d="M405.8,264.24a8.16,8.16,0,1,0,8.24,8.24A8.27,8.27,0,0,0,405.8,264.24Z"/><path class="b" d="M400.38,340.71a8.18,8.18,0,1,0,8.22,8.22A8.25,8.25,0,0,0,400.38,340.71Z"/><path class="b" d="M370.89,219.73a8.12,8.12,0,1,0-8-8.19A8.28,8.28,0,0,0,370.89,219.73Z"/><path class="b" d="M218.08,189.63a8.07,8.07,0,1,0-8.08-8.06A8.25,8.25,0,0,0,218.08,189.63Z"/><path class="b" d="M116.39,260a8.06,8.06,0,1,0-8.13-8A8.24,8.24,0,0,0,116.39,260Z"/><path class="b" d="M178.31,206a8.06,8.06,0,1,0-7.91-8.21A8.25,8.25,0,0,0,178.31,206Z"/><path class="b" d="M94.63,296.73a7.95,7.95,0,1,0-8.11-8A8.05,8.05,0,0,0,94.63,296.73Z"/><path class="b" d="M398.81,361a7.69,7.69,0,1,0,7.94,7.53A7.56,7.56,0,0,0,398.81,361Z"/><path class="b" d="M353.15,198.83a7.71,7.71,0,1,0-7.56-7.94A7.58,7.58,0,0,0,353.15,198.83Z"/><path class="b" d="M407.1,260.27a7.68,7.68,0,1,0-7.54-7.91A7.54,7.54,0,0,0,407.1,260.27Z"/><path class="b" d="M277.52,174.08a7.54,7.54,0,1,0-7.57-7.51A7.48,7.48,0,0,0,277.52,174.08Z"/><path class="b" d="M296.58,175.44a7.54,7.54,0,1,0-7.5-7.57A7.48,7.48,0,0,0,296.58,175.44Z"/><path class="b" d="M377.36,398a7.49,7.49,0,0,0-7.73,7.36c-.09,4.08,3.16,7.69,7,7.75s8.09-3.94,8.14-7.41A7.49,7.49,0,0,0,377.36,398Z"/><path class="b" d="M198.74,187.7a7.51,7.51,0,1,0-7.29-7.8A7.52,7.52,0,0,0,198.74,187.7Z"/><path class="b" d="M422.39,304.58a7.42,7.42,0,1,0,7.3,7.54A7.58,7.58,0,0,0,422.39,304.58Z"/><path class="b" d="M138.86,222.47a7.44,7.44,0,1,0-7.45-7.69A7.56,7.56,0,0,0,138.86,222.47Z"/><path class="b" d="M315.63,176.72a7.45,7.45,0,1,0-7.35-7.47A7.58,7.58,0,0,0,315.63,176.72Z"/><path class="b" d="M390.12,220.43a7.45,7.45,0,1,0-7.4-7.76A7.58,7.58,0,0,0,390.12,220.43Z"/><path class="b" d="M258,172.64A7.48,7.48,0,1,0,250.9,165,7.57,7.57,0,0,0,258,172.64Z"/><path class="b" d="M95.56,277.13a7.47,7.47,0,1,0-7.2-7.57A7.56,7.56,0,0,0,95.56,277.13Z"/><path class="b" d="M423.67,285.51A7.37,7.37,0,1,0,431,293,7.57,7.57,0,0,0,423.67,285.51Z"/><path class="b" d="M421.09,323.8a7.33,7.33,0,1,0,7.14,7.25A7.49,7.49,0,0,0,421.09,323.8Z"/><path class="b" d="M372.25,199.78a7.3,7.3,0,1,0-7.12-7.63A7.44,7.44,0,0,0,372.25,199.78Z"/><path class="b" d="M408.61,240.75a7.28,7.28,0,1,0-7.28-7.12A7.42,7.42,0,0,0,408.61,240.75Z"/><path class="b" d="M159.19,203.87a7.28,7.28,0,1,0-7.12-7.6A7.42,7.42,0,0,0,159.19,203.87Z"/><path class="b" d="M239.11,171a7.23,7.23,0,1,0-7.1-7.28A7.33,7.33,0,0,0,239.11,171Z"/><path class="b" d="M117.66,240a7.25,7.25,0,1,0-7.22-7.19A7.36,7.36,0,0,0,117.66,240Z"/><path class="b" d="M397.8,380.61a7.2,7.2,0,1,0,7.08,7.22A7.25,7.25,0,0,0,397.8,380.61Z"/><path class="b" d="M425.07,266.68a7.08,7.08,0,1,0,7,7.23A7,7,0,0,0,425.07,266.68Z"/><path class="b" d="M419.63,343.29a7,7,0,1,0,6.87,7.21A6.79,6.79,0,0,0,419.63,343.29Z"/><path class="b" d="M335.48,177.77a7.13,7.13,0,1,0-7.07-7.19A7.09,7.09,0,0,0,335.48,177.77Z"/><path class="b" d="M72.74,319.38a7,7,0,1,0,6.84,7.26A6.81,6.81,0,0,0,72.74,319.38Z"/><path class="b" d="M71.52,338.53a6.94,6.94,0,1,0,6.65,7.13A6.8,6.8,0,0,0,71.52,338.53Z"/><path class="b" d="M219,169.26a6.83,6.83,0,1,0-6.39-7.09A6.86,6.86,0,0,0,219,169.26Z"/><path class="b" d="M179.64,185.69a6.87,6.87,0,1,0-6.68-7.14A6.81,6.81,0,0,0,179.64,185.69Z"/><path class="b" d="M74,300.36a6.86,6.86,0,1,0,6.85,7A6.8,6.8,0,0,0,74,300.36Z"/><path class="b" d="M354.38,178.81a6.82,6.82,0,1,0-6.53-6.93A6.88,6.88,0,0,0,354.38,178.81Z"/><path class="b" d="M96.93,257.36a6.82,6.82,0,1,0-6.55-6.91A6.85,6.85,0,0,0,96.93,257.36Z"/><path class="b" d="M426.17,260.76a6.81,6.81,0,1,0-6.61-6.84A6.88,6.88,0,0,0,426.17,260.76Z"/><path class="b" d="M70.08,357.8a6.79,6.79,0,1,0,6.58,6.91A6.91,6.91,0,0,0,70.08,357.8Z"/><path class="b" d="M418.47,363.42a6.63,6.63,0,1,0,6.33,6.76A6.79,6.79,0,0,0,418.47,363.42Z"/><path class="b" d="M391.56,200.55a6.69,6.69,0,1,0-6.72-6.75A6.87,6.87,0,0,0,391.56,200.55Z"/><path class="b" d="M410.12,221a6.68,6.68,0,1,0-6.82-6.62A6.86,6.86,0,0,0,410.12,221Z"/><path class="b" d="M75.21,294.76a6.66,6.66,0,1,0-6.52-6.62A6.83,6.83,0,0,0,75.21,294.76Z"/><path class="b" d="M111.57,400c-3.7-3.24-8.8-2.6-12.49,1.91l12.15,10.71C115.27,408.42,115.26,403.23,111.57,400Z"/><path class="b" d="M140.24,201.53a6.31,6.31,0,1,0-6.32-6.55A6.16,6.16,0,0,0,140.24,201.53Z"/><path class="b" d="M118.84,220a6.29,6.29,0,1,0-6.09-6.41A6.16,6.16,0,0,0,118.84,220Z"/><path class="b" d="M374,179.64a6.28,6.28,0,1,0-6.51-6.29A6.14,6.14,0,0,0,374,179.64Z"/><path class="b" d="M200.37,167.35a6.27,6.27,0,1,0-6.32-6.48A6.12,6.12,0,0,0,200.37,167.35Z"/><path class="b" d="M427.69,241.1a6.28,6.28,0,1,0-6.23-6.57A6.13,6.13,0,0,0,427.69,241.1Z"/><path class="b" d="M278.54,153.73a6.32,6.32,0,1,0-6-6.46A6.19,6.19,0,0,0,278.54,153.73Z"/><path class="b" d="M298.07,155.11a6.33,6.33,0,1,0-6.42-6.41A6.2,6.2,0,0,0,298.07,155.11Z"/><path class="b" d="M83.12,379.48c-1.83,1.26-1.92,2.65-.64,4.14,2.63,3.06,5.38,6,8.2,9.12,4.63-2.85,5.9-7.35,3.46-11.13A7.84,7.84,0,0,0,83.12,379.48Z"/><path class="b" d="M313.35,432.33c-4.44,1.66-6.42,6.22-4.75,11.23l16.12-5.39C322.28,432.68,318,430.6,313.35,432.33Z"/><path class="b" d="M317.25,155.68a6.21,6.21,0,1,0-6.36-6.07A6.12,6.12,0,0,0,317.25,155.68Z"/><path class="b" d="M444.09,269a6.1,6.1,0,1,0,6.14,6.07A6.19,6.19,0,0,0,444.09,269Z"/><path class="b" d="M76.55,274.43a6.13,6.13,0,1,0-6-6.2A6.17,6.17,0,0,0,76.55,274.43Z"/><path class="b" d="M440.06,326.37a6.12,6.12,0,1,0,6.09,6.07A6.19,6.19,0,0,0,440.06,326.37Z"/><path class="b" d="M442.82,288.06a6.19,6.19,0,1,0,6.13,6.33A6.12,6.12,0,0,0,442.82,288.06Z"/><path class="b" d="M259.73,152.25a6.2,6.2,0,1,0-6.2-6.29A6.11,6.11,0,0,0,259.73,152.25Z"/><path class="b" d="M336.83,156.91a6.08,6.08,0,1,0-6-6.15A6.21,6.21,0,0,0,336.83,156.91Z"/><path class="b" d="M160.51,183.61a6.15,6.15,0,1,0-6-6.17A6.18,6.18,0,0,0,160.51,183.61Z"/><path class="b" d="M98.51,237.52a6.1,6.1,0,1,0-6.06-6.15A6.19,6.19,0,0,0,98.51,237.52Z"/><path class="b" d="M441.34,307.18a6.19,6.19,0,1,0,6.24,6.22A6.13,6.13,0,0,0,441.34,307.18Z"/><path class="b" d="M352.38,416.31c-4.08,2-5.73,8.09-2.58,11.46l13.65-6.8C361.23,415.94,356.75,414.16,352.38,416.31Z"/><path class="b" d="M240.47,150.71a6,6,0,1,0-5.88-6.26A6.19,6.19,0,0,0,240.47,150.71Z"/><path class="b" d="M411.43,201.16a5.94,5.94,0,1,0-6-6.11A6.11,6.11,0,0,0,411.43,201.16Z"/><path class="b" d="M438.95,345.8a5.82,5.82,0,1,0,5.54,5.84A5.86,5.86,0,0,0,438.95,345.8Z"/><path class="b" d="M393.2,180.44a5.71,5.71,0,1,0-6-5.59A5.65,5.65,0,0,0,393.2,180.44Z"/><path class="b" d="M445.33,249.58a5.74,5.74,0,1,0,5.9,5.67A5.7,5.7,0,0,0,445.33,249.58Z"/><path class="b" d="M181.06,165.37a5.66,5.66,0,1,0-5.52-5.71A5.55,5.55,0,0,0,181.06,165.37Z"/><path class="b" d="M355.71,157.85a5.66,5.66,0,1,0-5.34-5.89A5.56,5.56,0,0,0,355.71,157.85Z"/><path class="b" d="M429,221.45a5.74,5.74,0,1,0-5.62-5.95A5.69,5.69,0,0,0,429,221.45Z"/><path class="b" d="M52.11,338.59a5.51,5.51,0,1,0,5.52,5.59A5.42,5.42,0,0,0,52.11,338.59Z"/><path class="b" d="M78.18,254.67a5.5,5.5,0,1,0-5.61-5.22A5.42,5.42,0,0,0,78.18,254.67Z"/><path class="b" d="M446.72,230.78a5.41,5.41,0,1,0,5.55,5.28A5.53,5.53,0,0,0,446.72,230.78Z"/><path class="b" d="M53.52,319.44A5.54,5.54,0,1,0,59,325.1,5.42,5.42,0,0,0,53.52,319.44Z"/><path class="b" d="M220.48,148.86a5.55,5.55,0,1,0-5.22-5.61A5.44,5.44,0,0,0,220.48,148.86Z"/><path class="b" d="M54.9,300.39a5.47,5.47,0,1,0,5.42,5.43A5.46,5.46,0,0,0,54.9,300.39Z"/><path class="b" d="M437.41,366a5.41,5.41,0,1,0,5.3,5.53A5.53,5.53,0,0,0,437.41,366Z"/><path class="b" d="M375,158.9a5.34,5.34,0,1,0-5.23-5.28A5.52,5.52,0,0,0,375,158.9Z"/><path class="b" d="M120.41,199.24a5.38,5.38,0,1,0-5.38-5.47A5.54,5.54,0,0,0,120.41,199.24Z"/><path class="b" d="M141.54,181.44a5.34,5.34,0,1,0-5.3-5.22A5.52,5.52,0,0,0,141.54,181.44Z"/><path class="b" d="M50.72,357.84a5.38,5.38,0,1,0,5.42,5.43A5.57,5.57,0,0,0,50.72,357.84Z"/><path class="b" d="M100,217.54a5.25,5.25,0,1,0-5.33-5.16A5.4,5.4,0,0,0,100,217.54Z"/><path class="b" d="M56.48,281.52a5.22,5.22,0,1,0,5,5.47A5.36,5.36,0,0,0,56.48,281.52Z"/><path class="b" d="M412.09,181.2a5.1,5.1,0,1,0-5.16-5.21A5.09,5.09,0,0,0,412.09,181.2Z"/><path class="b" d="M299.24,134.08a5.1,5.1,0,1,0-5-5A5.08,5.08,0,0,0,299.24,134.08Z"/><path class="b" d="M201.88,147a5,5,0,1,0-5.22-5A4.91,4.91,0,0,0,201.88,147Z"/><path class="b" d="M280.06,132.63a5,5,0,1,0-4.85-5.35A4.92,4.92,0,0,0,280.06,132.63Z"/><path class="b" d="M460.67,309.77a5,5,0,1,0,4.81,5A4.82,4.82,0,0,0,460.67,309.77Z"/><path class="b" d="M318.35,135.36a5,5,0,1,0-4.9-5.31A4.92,4.92,0,0,0,318.35,135.36Z"/><path class="b" d="M430.3,201.66a5.07,5.07,0,1,0-4.89-5.4A5,5,0,0,0,430.3,201.66Z"/><path class="b" d="M461.89,290.61a5,5,0,1,0,5,4.92A4.9,4.9,0,0,0,461.89,290.61Z"/><path class="b" d="M459.22,329a4.83,4.83,0,1,0,4.76,4.73A4.77,4.77,0,0,0,459.22,329Z"/><path class="b" d="M448.16,221.88a4.81,4.81,0,1,0-4.74-5.13A4.77,4.77,0,0,0,448.16,221.88Z"/><path class="b" d="M162.1,163.26a4.91,4.91,0,1,0-4.94-4.89A4.76,4.76,0,0,0,162.1,163.26Z"/><path class="b" d="M338.37,136.55a4.84,4.84,0,1,0-4.94-4.91A4.77,4.77,0,0,0,338.37,136.55Z"/><path class="b" d="M463.19,271.62a4.88,4.88,0,1,0,4.93,4.9A4.74,4.74,0,0,0,463.19,271.62Z"/><path class="b" d="M260.74,131.1a4.87,4.87,0,1,0-4.51-5A4.78,4.78,0,0,0,260.74,131.1Z"/><path class="b" d="M79.42,234.85a4.8,4.8,0,1,0-4.78-5.07A4.77,4.77,0,0,0,79.42,234.85Z"/><path class="b" d="M394.15,159.7a4.78,4.78,0,1,0-4.65-4.9A4.83,4.83,0,0,0,394.15,159.7Z"/><path class="b" d="M458,348.36a4.62,4.62,0,1,0,4.4,4.76A4.78,4.78,0,0,0,458,348.36Z"/><path class="b" d="M57.75,271.67a4.75,4.75,0,1,0-4.91-4.58A4.85,4.85,0,0,0,57.75,271.67Z"/><path class="b" d="M357.05,137.7a4.64,4.64,0,1,0,.51-9.26,4.64,4.64,0,0,0-.51,9.26Z"/><path class="b" d="M464.74,252a4.75,4.75,0,0,0-4.82,4.68,4.57,4.57,0,0,0,4.4,4.73,4.76,4.76,0,0,0,5-4.48A4.86,4.86,0,0,0,464.74,252Z"/><path class="b" d="M241.42,129.56a4.69,4.69,0,1,0-4.81-4.73A4.86,4.86,0,0,0,241.42,129.56Z"/><path class="b" d="M182.61,145.07a4.53,4.53,0,0,0,4.43-4.62,4.46,4.46,0,0,0-4.7-4.32,4.3,4.3,0,0,0-4.24,4.43A4.44,4.44,0,0,0,182.61,145.07Z"/><path class="b" d="M465.92,233.34c-2.68,0-4.19,1.61-4.17,4.29s1.65,4,4.29,4.24c2.64-.27,4.21-1.66,4.17-4.36A3.86,3.86,0,0,0,465.92,233.34Z"/><path class="b" d="M431.78,181.76c2.64-.21,4.26-1.54,4.29-4.24s-1.49-4.25-4.17-4.28a3.86,3.86,0,0,0-4.29,4.17C427.56,180.11,429.14,181.49,431.78,181.76Z"/><path class="b" d="M119.74,419.54l12.46,8.6C132.26,420.09,126,416.1,119.74,419.54Z"/><path class="b" d="M376.45,138.58c2.43.11,4.27-1.81,4.21-4.69a3.87,3.87,0,0,0-4.08-3.59,4,4,0,0,0-4.2,4.25A3.87,3.87,0,0,0,376.45,138.58Z"/><path class="b" d="M59,251.91c2.56-.08,3.83-1.57,4.15-4-.23-2.49-1.47-4.09-4-4.17s-4,1.34-4.25,3.85A4,4,0,0,0,59,251.91Z"/><path class="b" d="M449.73,202.11a3.87,3.87,0,0,0,4-3.66c0-2.78-1.67-4.56-4-4.66a4.09,4.09,0,0,0-4.36,4.14A4,4,0,0,0,449.73,202.11Z"/><path class="b" d="M222.23,127.66a3.87,3.87,0,0,0,4.09-4c.13-2.44-1.76-4.31-4.67-4.27a3.87,3.87,0,0,0-3.64,4A4,4,0,0,0,222.23,127.66Z"/><path class="b" d="M101.36,196.68a3.9,3.9,0,0,0,4.07-3.75,4,4,0,0,0-3.86-4.59A3.9,3.9,0,0,0,97.16,192C96.84,194.48,98.61,196.51,101.36,196.68Z"/><path class="b" d="M413.18,160.39a4,4,0,0,0,4.32-4.13,3.88,3.88,0,0,0-3.63-4.08c-2.7,0-4.58,1.71-4.57,4A3.87,3.87,0,0,0,413.18,160.39Z"/><path class="b" d="M121.82,179c2.44-.26,4.13-1.48,4.15-4.24a3.8,3.8,0,0,0-3.9-4.21c-2.67-.14-4.33,1.27-4.46,4S119,178.66,121.82,179Z"/><path class="b" d="M456.38,368.73a4.06,4.06,0,0,0,.08,8.12c2.56,0,3.83-1.62,4.1-4.1C460.24,370.27,458.94,368.69,456.38,368.73Z"/><path class="b" d="M35.79,300.66c-2.25-.41-3.75,1.33-4,3.66-.23,2.12,2,4.59,4,4,1.66-.47,3-2,4.49-3.09v-1.54C38.79,302.65,37.41,301,35.79,300.66Z"/><path class="b" d="M142.15,161c2.57.09,3.88-1.51,4.23-4-.31-2.48-1.6-4.08-4.17-4.06a4,4,0,0,0-.06,8.05Z"/><path class="b" d="M80.49,214.88c2.53.2,3.9-1.37,4.55-4.83-1.07-.85-2.36-2.64-4-3-2.41-.52-4.11,1.22-4.24,3.71A3.68,3.68,0,0,0,80.49,214.88Z"/><path class="b" d="M31.9,338.52c-.8,1.11-2.52,2.5-2.78,4.12-.4,2.44,1.4,4.08,3.93,4.08A3.69,3.69,0,0,0,37,342.85C37,340.29,35.43,339,31.9,338.52Z"/><path class="b" d="M34.29,319.59a4,4,0,0,0,0,8c2.56.07,3.86-1.53,4.2-4C38.15,321.15,36.85,319.56,34.29,319.59Z"/><path class="b" d="M413.83,383.79c-2.67,1.52-3.62,3.92-2.77,8.08l10-7.18C418.58,382.77,416.24,382.42,413.83,383.79Z"/><path class="b" d="M68,378c-2.86.17-4.72,1.72-5.93,5.22l12.51-.82C73.05,379,70.88,377.87,68,378Z"/><path class="b" d="M319.7,114.81c1.43-.23,3.51-2.06,3.64-3.34s-1.62-3-2.56-4.54l-1.56,0c-1.05,1.35-2.7,2.57-3,4.08A3.06,3.06,0,0,0,319.7,114.81Z"/><path class="b" d="M32.3,357.44l-1.61.06c-1,1.52-2.76,3.11-2.65,4.55s2.13,3.19,3.58,3.47a3.12,3.12,0,0,0,3.7-3.68C35.06,360.25,33.36,358.9,32.3,357.44Z"/><path class="b" d="M463.67,218.23a3.15,3.15,0,0,0,3.5,3.9c1.61-.17,3.05-1.82,4.57-2.8l0-1.61c-1.48-1-3-2.93-4.43-2.89S464,216.8,463.67,218.23Z"/><path class="b" d="M478,296.74c-.12,2.41,1.32,4.16,3.68,3.84,1.52-.21,2.86-1.78,4.28-2.75l0-1.52c-1.38-1-2.64-2.61-4.16-2.93C479.67,292.93,478.11,294.49,478,296.74Z"/><path class="b" d="M281.74,112.08c1.51-.27,2.77-1.92,4.14-3l0-1.52c-1.42-1-2.76-2.48-4.29-2.73-2.17-.35-3.64,1.27-3.66,3.53C277.87,110.84,279.41,112.51,281.74,112.08Z"/><path class="b" d="M300.75,113.54c1.59-.27,2.93-2,4.38-3l-.07-1.61c-1.53-1-3.13-2.74-4.57-2.62s-3.18,2.16-3.45,3.61A3.12,3.12,0,0,0,300.75,113.54Z"/><path class="b" d="M399.24,136.09c.16-2.25-1.07-4-3.31-3.79-1.53.14-3,1.54-4.43,2.37l-.12,1.59c1.32,1.06,2.5,2.69,4,3.05C397.52,139.84,399.08,138.38,399.24,136.09Z"/><path class="b" d="M36.93,282c-1.22.1-3,2-3.25,3.31a2.82,2.82,0,0,0,3.4,3.48c1.5-.26,2.78-1.77,4.15-2.71q0-.84,0-1.68C39.77,283.54,38.28,281.91,36.93,282Z"/><path class="b" d="M163.4,142.73c1.52-.25,2.83-1.74,4.23-2.67v-1.61c-1.39-1-2.69-2.47-4.2-2.73-2.19-.39-3.6,1.2-3.61,3.49S161.19,143.09,163.4,142.73Z"/><path class="b" d="M480.2,312.49c-2.29.07-3.83,1.53-3.39,3.7.3,1.5,1.85,2.76,2.85,4.12l1.61,0c.9-1.43,2.35-2.78,2.56-4.31C484.14,313.75,482.48,312.43,480.2,312.49Z"/><path class="b" d="M202.34,126.35l1.62,0c.91-1.42,2.38-2.76,2.61-4.28.33-2.21-1.31-3.56-3.59-3.51s-3.85,1.48-3.43,3.66C199.83,123.71,201.36,125,202.34,126.35Z"/><path class="b" d="M481.42,282l1.61,0c1-1.37,2.54-2.62,2.85-4.12.44-2.17-1.1-3.64-3.39-3.7s-3.93,1.25-3.63,3.47C479.07,279.24,480.52,280.6,481.42,282Z"/><path class="b" d="M339.58,116a2.8,2.8,0,0,0,3.48-3.38c-.26-1.49-1.74-2.77-2.68-4.15l-1.69,0c-.87,1.42-2.5,2.9-2.39,4.24S338.24,115.68,339.58,116Z"/><path class="b" d="M262.17,110.47c1.36-.16,3.37-1.75,3.55-2.93s-1.32-2.91-2.09-4.39L262,103c-1,1.22-2.54,2.31-2.91,3.7C258.54,108.86,259.93,110.74,262.17,110.47Z"/><path class="b" d="M483.06,254c-.93,1.28-2.4,2.46-2.66,3.87a2.78,2.78,0,0,0,3.37,3.47A5,5,0,0,0,487,258c.16-1.2-1.48-2.64-2.32-4Z"/><path class="b" d="M479,332a5,5,0,0,0-3.31,3.22,2.78,2.78,0,0,0,3.47,3.37c1.41-.26,2.59-1.73,3.87-2.66l0-1.6C481.61,333.45,480.17,331.82,479,332Z"/><path class="b" d="M269.28,452.84l13.52-2.43C277.61,446.38,272,447.38,269.28,452.84Z"/><path class="b" d="M451,182.25c1.12-1.16,3-2.24,3.14-3.51s-1.58-2.58-2.48-3.89l-1.58,0c-.85,1.34-2.51,2.8-2.34,4S449.86,181.13,451,182.25Z"/><path class="b" d="M434.13,161.53c.82-1.36,2.35-2.79,2.24-4.07s-2.2-3.11-3.1-2.95a4.79,4.79,0,0,0-3.23,3.23c-.13,1.18,1.61,2.56,2.53,3.86Z"/><path class="b" d="M358.59,117.11c1.29.1,2.7-1.49,4.06-2.34q0-.73,0-1.45c-1.23-.91-2.6-2.69-3.65-2.52a5,5,0,0,0-3.36,3.2C355.43,114.84,357.45,117,358.59,117.11Z"/><path class="b" d="M60.94,232.67c.93-1.29,2.67-2.64,2.57-3.84s-1.94-3.27-3.07-3.31-3.11,1.82-3.31,3.07,1.44,2.66,2.27,4Z"/><path class="b" d="M156.31,441.07l12.77,5.08C167,440.09,162,438.11,156.31,441.07Z"/><path class="b" d="M242.6,108.82c1.13.16,2.52-1.46,4.78-2.93-2.17-1.6-3.47-3.29-4.61-3.19s-2.26,1.91-3.39,3C240.45,106.79,241.4,108.65,242.6,108.82Z"/><path class="b" d="M36.44,264.1l-.31.36a13.55,13.55,0,0,1-.93,1h0c.2.21.39.44.59.69l.39.5.39.5a3.39,3.39,0,0,0,1.85,1.45c1.13.16,2.5-1.45,4.75-2.93-2.17-1.59-3.46-3.27-4.6-3.17C37.81,262.58,37.12,263.31,36.44,264.1Z"/><path class="b" d="M471.78,199.42c-.1-1.2-1.91-2.26-3-3.38-1.12,1.06-3,2-3.15,3.22s1.46,2.52,2.94,4.77C470.19,201.86,471.87,200.56,471.78,199.42Z"/><path class="b" d="M49.82,378.11a4.3,4.3,0,0,0-5,3.4L54.24,383C54.1,379.86,52.52,378.36,49.82,378.11Z"/><path class="b" d="M415,140.05c1.07,0,2.2-1.56,4.1-3.07-2-1.34-3.42-2.92-4.34-2.69-1.21.32-2.06,2.06-3.06,3.18C412.79,138.4,413.86,140,415,140.05Z"/><path class="b" d="M126,155.86c0-1.12-1.64-2.21-2.56-3.3-1.13,1-2.88,1.83-3.2,3-.24.92,1.34,2.31,2.66,4.35C124.45,158.06,126.06,156.93,126,155.86Z"/><path class="b" d="M102.69,176.32c.78.19,2.86-1.7,2.94-2.77s-1.4-2.54-2.77-4.73c-1.61,2.08-3.32,3.35-3.16,4.32A4.75,4.75,0,0,0,102.69,176.32Z"/><path class="b" d="M186.78,121c0-1.12-1.62-2.19-2.53-3.28-1.12,1-2.86,1.81-3.18,3-.24.91,1.32,2.3,2.64,4.34C185.23,123.21,186.82,122.09,186.78,121Z"/><path class="b" d="M484.92,235.94c-1.07.08-2.94,2.06-2.79,2.89a4.53,4.53,0,0,0,3,3.07c1.11.12,2.42-1.53,3.63-2.41l-.05-1.4C487.46,237.31,486.14,235.85,484.92,235.94Z"/><path class="b" d="M476.72,350.72c-.77,1.29-2.22,2.63-2.12,3.84s2.09,2.92,2.93,2.76a4.53,4.53,0,0,0,3-3.06c.11-1.11-1.56-2.4-2.45-3.61Z"/><path class="b" d="M84.84,191.07c0-1-1.64-1.87-2.56-2.81-1,1-2.54,1.81-2.79,2.95-.19.86,1.25,2.1,2.6,4.13C83.49,193.32,84.87,192.18,84.84,191.07Z"/><path class="b" d="M377.72,118.07c1.13.07,2.34-1.27,4.55-2.63-2.12-1.48-3.35-3-4.36-2.87a4.21,4.21,0,0,0-2.77,2.87C375,116.19,376.74,118,377.72,118.07Z"/><path class="b" d="M223.69,107c1,.07,2-1.37,3.92-2.79-2-1.23-3.24-2.54-4.19-2.38s-1.78,1.76-2.65,2.73C221.74,105.41,222.67,106.9,223.69,107Z"/><path class="b" d="M42.28,246.38c-.14-1-1.64-1.72-2.54-2.57-.85.9-2.29,1.76-2.37,2.73s1.28,1.95,2.57,3.7C41.13,248.41,42.42,247.29,42.28,246.38Z"/><path class="b" d="M483.95,219.69c.24,1.07,1.68,1.88,2.61,2.81.87-.87,2.41-1.73,2.43-2.62,0-1.05-1.28-2.12-2.56-4C485.15,217.73,483.77,218.88,483.95,219.69Z"/><path class="b" d="M64.31,209.65c-.85-.91-1.6-2.4-2.56-2.55s-2,1.15-3.87,2.33c1.75,1.3,2.79,2.65,3.7,2.57S63.4,210.5,64.31,209.65Z"/><path class="b" d="M452.26,161.47c.9.13,2-1.15,3.83-2.33-1.73-1.28-2.76-2.62-3.67-2.55a3.49,3.49,0,0,0-2.52,2.36A3.49,3.49,0,0,0,452.26,161.47Z"/><path class="b" d="M473.71,373.84a4.16,4.16,0,0,0,2.46,2.82c.62.19,2.49-1.36,2.57-2.24.09-1-1.13-2.21-2.28-4.17C475.06,372,473.6,373,473.71,373.84Z"/><path class="b" d="M143.57,140.41c.94.15,2.14-1.22,4.17-2.54-2-1.34-3.11-2.61-4.17-2.58s-2.6,1.67-2.48,2.35A4,4,0,0,0,143.57,140.41Z"/><path class="b" d="M323.57,92.21c-.75-.83-1.42-2.18-2.29-2.33s-1.84,1-3.54,2.06c1.59,1.2,2.51,2.43,3.33,2.37S322.74,93,323.57,92.21Z"/><path class="b" d="M304.33,90.91c0-.88-1.28-1.72-2-2.58-.89.8-2.23,1.46-2.51,2.43-.19.68,1.07,1.78,2.12,3.36C303.12,92.63,304.36,91.75,304.33,90.91Z"/><path class="b" d="M399.38,116.71c0-.83-1.45-2.46-2.08-2.37a3.68,3.68,0,0,0-2.67,2.19c-.17.87,1.08,2,2.21,3.88C398.13,118.65,399.35,117.7,399.38,116.71Z"/><path class="b" d="M434.61,140.75c.82.09,1.78-1.11,3.42-2.25-1.66-1.11-2.64-2.29-3.47-2.18s-1.58,1.44-2.37,2.24C433,139.34,433.73,140.66,434.61,140.75Z"/><path class="b" d="M467.74,179.59c-.16.57,1.39,2.24,2.21,2.27,1,0,2-1.16,3.71-2.27-1.63-1.23-2.67-2.58-3.41-2.43A3.92,3.92,0,0,0,467.74,179.59Z"/><path class="b" d="M13.21,339.12c-1,.28-1.62,1.63-2.41,2.52.86.71,1.71,2,2.59,2s1.71-1.22,3.2-2.4C15,340.17,13.9,338.92,13.21,339.12Z"/><path class="b" d="M498.56,298.34c.29,1,1.64,1.61,2.54,2.39.7-.87,1.94-1.72,2-2.6s-1.23-1.71-2.43-3.18C499.6,296.55,498.36,297.66,498.56,298.34Z"/><path class="b" d="M389.72,406l8.91-5.54C393.26,399.93,391.11,401.36,389.72,406Z"/><path class="b" d="M265.76,88c0-.65-1.17-2-1.64-1.93a3.08,3.08,0,0,0-2.21,1.76c-.15.7.87,1.65,1.77,3.16C264.73,89.59,265.71,88.83,265.76,88Z"/><path class="b" d="M498.29,334.67a3.06,3.06,0,0,0-2.13,1.85c-.12.71.93,1.61,1.9,3.09,1-1.46,1.94-2.26,2-3.08C500,335.87,498.77,334.57,498.29,334.67Z"/><path class="b" d="M14.63,320.16c-.48-.18-2.07,1.08-2.15,1.81-.1.88.87,1.87,1.75,3.5,1.24-1.43,2.51-2.27,2.42-2.92A3.57,3.57,0,0,0,14.63,320.16Z"/><path class="b" d="M499.52,315.38c-.9.23-1.55,1.43-2.3,2.22.73.7,1.46,2,2.19,2,.88,0,1.77-1.06,3.31-2.12C501.13,316.36,500.16,315.21,499.52,315.38Z"/><path class="b" d="M13.79,303c.65.77,1.22,2,2,2.16s1.69-.86,3.21-1.75c-1.36-1.12-2.15-2.26-2.89-2.24S14.56,302.3,13.79,303Z"/><path class="b" d="M502.26,277.13c-.9.23-1.55,1.43-2.31,2.21.73.7,1.45,2,2.18,2,.88,0,1.77-1.06,3.32-2.11C503.87,278.12,502.9,277,502.26,277.13Z"/><path class="b" d="M503.61,261.37c.73.06,1.55-1,2.94-2-1.44-.94-2.32-2-3.05-1.87a2,2,0,0,0,.11,3.91Z"/><path class="b" d="M485.9,200.68c0,.65,1.17,2,1.64,1.93a3.08,3.08,0,0,0,2.21-1.77c.15-.7-.87-1.65-1.77-3.16C486.94,199.09,486,199.86,485.9,200.68Z"/><path class="b" d="M105.87,154.36c0-.72-1.07-1.39-1.66-2.09-.72.68-1.8,1.26-2,2.07-.15.54.93,1.42,1.82,2.64C104.91,155.78,105.91,155,105.87,154.36Z"/><path class="b" d="M164.68,121.5c.88,0,1.81-1,3.39-2-1.53-1.14-2.46-2.33-3.11-2.19a3.58,3.58,0,0,0-2.24,2.17C162.58,120,164,121.47,164.68,121.5Z"/><path class="b" d="M418,118a1.8,1.8,0,0,0-.68-1l-.56-.48-.28-.24-.26-.24c-.17.18-.36.35-.56.53a3.73,3.73,0,0,0-1.35,1.66c-.12.54,1,1.36,2,2.53C417.11,119.53,418.05,118.73,418,118Z"/><path class="b" d="M204.4,105.06c.6.2,1.63-.92,3.07-1.82-1.3-1.1-2.05-2.26-2.81-2.26s-1.6,1.1-2.4,1.72C202.95,103.54,203.52,104.77,204.4,105.06Z"/><path class="b" d="M362.12,95c-.69-.72-1.29-1.81-2.11-2-.54-.15-1.42,1-2.65,1.87,1.23.91,2,1.9,2.68,1.86S361.43,95.6,362.12,95Z"/><path class="b" d="M341.08,95.46c.74.06,1.58-1,3-2.08-1.48-1-2.38-2-3.12-1.9s-1.4,1.32-2.09,2.05C339.6,94.22,340.29,95.39,341.08,95.46Z"/><path class="b" d="M282.87,91.45c.9-.23,1.55-1.43,2.31-2.21-.73-.7-1.45-2-2.18-2-.88,0-1.77,1.06-3.32,2.11C281.26,90.47,282.23,91.62,282.87,91.45Z"/><g class="c"><path class="a" d="M305.19,46.78l-2.4.07c-.82,0-1.66.07-2.53.13s-1.78.12-2.73.2-1.95.18-3,.31a58.84,58.84,0,0,0-11.5,3,55.2,55.2,0,0,0-10.36,5.2A57.63,57.63,0,0,0,263.49,63a66.26,66.26,0,0,0-7.91,9.36,107.3,107.3,0,0,0-5.77,9.31Q247.09,86.6,244.7,92t-4.4,11.31q-2,5.87-3.67,12.21-1.55,6-2.8,12.4T231.66,141q-.94,6.7-1.58,13.73t-1,14.29q-.31,7-.4,14.18t0,14.25q.12,7.12.45,14.25t.85,14.19q.54,7.25,1.32,14.5t1.81,14.4q1,7.16,2.29,14.27t2.75,14.1q.79,3.83,1.67,7.55t1.82,7.32q.94,3.6,2,7.09t2.1,6.86l-.83-.39-.8-.38-.8-.37-.83-.36q-1-.44-2-.94t-2-1.05q-1-.55-1.95-1.16t-1.91-1.26q-.78-.56-1.52-1.16t-1.44-1.27q-.7-.66-1.36-1.4T229,300.74a6.5,6.5,0,0,1-.55-.82,11.05,11.05,0,0,1-.66-1.39,18,18,0,0,1-.68-2.09,28.56,28.56,0,0,1-.59-2.91q-.34-1.75-.6-3.67t-.42-4q-.17-2.1-.26-4.36t-.1-4.71q0-2.85-.11-5.76t-.18-5.88q-.11-3-.25-6t-.32-6q-.19-3.14-.47-6.27t-.64-6.25q-.36-3.12-.8-6.22t-.94-6.19q-.57-3.54-1.37-6.93t-1.85-6.62q-1-3.23-2.33-6.27t-2.79-5.9a56.57,56.57,0,0,0-3.91-6.35,53.92,53.92,0,0,0-10.09-10.72,56.52,56.52,0,0,0-6.15-4.32,44.65,44.65,0,0,0-6.3-3.2,50.37,50.37,0,0,0-7-2.29,59,59,0,0,0-7.58-1.37,70.67,70.67,0,0,0-8.15-.46h-1.73l-.71,0-.53,0a37,37,0,0,0-7.83.83,37.49,37.49,0,0,0-7.5,2.48,42.06,42.06,0,0,0-7.11,4.1,51,51,0,0,0-6.66,5.7,66.37,66.37,0,0,0-5.2,5.83,76.81,76.81,0,0,0-4.71,6.65q-2.23,3.52-4.21,7.43T114.1,215q-1.62,4.06-3,8.45t-2.51,9.06q-1.13,4.66-2,9.62t-1.51,10.14q-.18,1.51-.33,3t-.27,3.09q-.12,1.55-.21,3.12t-.16,3.12q-.88-.65-1.8-1.3t-1.87-1.27l-1.93-1.25-2-1.23q-2.09-1.24-4.27-2.45t-4.45-2.37q-2.27-1.16-4.63-2.26t-4.79-2.14q-2.52-1.09-5.05-2.05t-5.08-1.81q-2.55-.85-5.1-1.57T58,243.61q-2.59-.61-5.16-1.07t-5.1-.78q-2.53-.32-5-.49t-4.93-.2a52.64,52.64,0,0,0-5.52.22,46.42,46.42,0,0,0-5.19.77,41.22,41.22,0,0,0-4.83,1.31,37.06,37.06,0,0,0-4.44,1.83,32.75,32.75,0,0,0-4.48,2.64A28.83,28.83,0,0,0,9.55,251a27.19,27.19,0,0,0-3.1,3.71A27.7,27.7,0,0,0,4,258.92q-.83,1.83-1.49,3.74T1.4,266.54q-.49,2-.8,4t-.47,4.12Q0,276.55,0,278.45t.06,3.8q.08,1.9.24,3.8t.41,3.78c.14,1,.27,2,.4,3s.25,1.91.37,2.84.23,1.84.34,2.76.21,1.82.32,2.73.29,1.92.45,3,.35,2.15.54,3.32.41,2.39.63,3.68.47,2.63.72,4,.52,2.85.8,4.28.56,2.87.86,4.31.6,2.87.91,4.3.64,2.85,1,4.27.72,2.93,1.09,4.37.75,2.85,1.13,4.25S11,343.7,11.42,345s.81,2.67,1.23,4q.7,2.22,1.41,4.21T15.5,357q.73,1.74,1.47,3.25t1.5,2.78a31,31,0,0,0,2.4,3.76,32.9,32.9,0,0,0,2.93,3.41,35,35,0,0,0,3.41,3A37.15,37.15,0,0,0,31,375.82q1.66,1,3.43,1.82t3.66,1.54q1.88.7,3.87,1.27t4.05,1q1.38.28,2.84.51t3,.41q1.52.18,3.09.3t3.17.18l.84,0h2.6c1.31,0,2.64,0,4-.06s2.69-.11,4-.21,2.69-.21,4-.34,2.66-.29,4-.47q2.47-.27,4.93-.67t4.92-.94q2.46-.54,4.91-1.22t4.89-1.5q2.51-.82,4.86-1.77t4.54-2q2.19-1.07,4.22-2.26t3.9-2.47a44.61,44.61,0,0,0,3.83-3,39.07,39.07,0,0,0,3.32-3.27,34.86,34.86,0,0,0,2.79-3.54,32,32,0,0,0,2.24-3.78l.58-1.49a74.27,74.27,0,0,0,8.8,9.53,76.88,76.88,0,0,0,10.4,7.94,85.85,85.85,0,0,0,12,6.35,101.76,101.76,0,0,0,13.56,4.75q3.23,1,6.66,1.71t7,1.31q3.61.56,7.38.91t7.7.5h1.36q4.13.13,8.13,0t7.89-.51q3.89-.38,7.64-1t7.36-1.52a75.06,75.06,0,0,0,7.5-2.22,66.25,66.25,0,0,0,6.91-2.89,59.93,59.93,0,0,0,6.3-3.55,55.94,55.94,0,0,0,5.68-4.21,31.06,31.06,0,0,0,2.54-2.35,31.4,31.4,0,0,0,2.21-2.55,33,33,0,0,0,1.9-2.72q.88-1.4,1.62-2.87,1.08,1.57,2.18,3.1t2.23,3q1.13,1.46,2.28,2.84t2.34,2.69a63,63,0,0,0,10.48,9.27A54.77,54.77,0,0,0,298,387a53,53,0,0,0,9.81,3,53.83,53.83,0,0,0,8.62,1q5.08.19,9.7,0t8.82-.65a78.21,78.21,0,0,0,8-1.35,61.5,61.5,0,0,0,7.21-2.08q2.89-1,5.66-2.11t5.42-2.23q2.65-1.15,5.16-2.35t4.87-2.47q2.07-1.07,4.15-2.11t4.16-2q2.08-1,4.16-2t4.15-1.86a22.37,22.37,0,0,1,3-1,31.15,31.15,0,0,1,3.54-.7q1.89-.27,4-.37t4.52,0c1.71.06,3.2.17,4.48.32s2.37.33,3.28.53a20.35,20.35,0,0,1,2.24.61,11.91,11.91,0,0,1,1.38.56l3.24,1.71q1.65.89,3.35,1.83t3.44,1.94q1.74,1,3.51,2.06,2.19,1.32,4.58,2.58t5,2.46q2.58,1.2,5.33,2.33t5.66,2.21a70.86,70.86,0,0,0,7,2.1q3.7.92,7.89,1.6t8.9,1.11q4.71.43,10,.62a74.12,74.12,0,0,0,13.17-.66,66.26,66.26,0,0,0,12.37-3,65.4,65.4,0,0,0,11.55-5.31A71.55,71.55,0,0,0,530,375.7a112.42,112.42,0,0,0,8.47-8.1q4.09-4.33,7.85-9.21t7.21-10.31q3.45-5.44,6.54-11.41,3-5.75,5.65-11.86t5.06-12.6q2.38-6.5,4.43-13.32t3.76-14q1.7-7,3.12-14t2.59-14q1.16-7,2-13.89t1.45-13.72q.51-6,.88-12.44t.56-13.18q.2-6.78.21-13.88t-.16-14.55q-.13-7.65-.62-15.13t-1.34-14.8q-.86-7.32-2.08-14.39T582.76,117q-1.66-7.24-3.91-14a136.44,136.44,0,0,0-5.07-13.06,121.31,121.31,0,0,0-6.22-12A108.91,108.91,0,0,0,560.23,67a64,64,0,0,0-10.29-10.73,58.59,58.59,0,0,0-12.15-7.71A60.09,60.09,0,0,0,524,44a68.51,68.51,0,0,0-15.15-1.31,90.73,90.73,0,0,0-10.66.84,78.34,78.34,0,0,0-9.94,2,69.66,69.66,0,0,0-9.18,3.22,64.47,64.47,0,0,0-8.39,4.38q-3,1.82-6,3.75t-6,3.95q-3,2-6,4.12t-5.94,4.27q-2.43,1.77-5,3.49t-5.19,3.36q-2.64,1.64-5.38,3.2t-5.54,3a33.91,33.91,0,0,1-4.58,2A43.14,43.14,0,0,1,416,85.8a55.15,55.15,0,0,1-5.78.91q-3,.32-6.33.37c-3.58.05-6.7-.06-9.42-.29a57.86,57.86,0,0,1-7-1,33.65,33.65,0,0,1-5-1.41,19.17,19.17,0,0,1-3.26-1.56q-2.61-1.54-5.09-3.15t-4.84-3.29q-2.35-1.68-4.56-3.42t-4.26-3.53q-2.75-2.37-5.64-4.59t-5.92-4.28q-3-2.06-6.16-4T336.39,53a49.38,49.38,0,0,0-6.77-2.88,58.27,58.27,0,0,0-7.48-2A70.6,70.6,0,0,0,314,47a86.54,86.54,0,0,0-8.79-.24"/></g><g class="c"><path class="d" d="M167.39,188.32h-1.46l-.74,0-.75,0a21.34,21.34,0,0,0-4.88.55,23.56,23.56,0,0,0-4.79,1.68,29.33,29.33,0,0,0-4.69,2.81,39.32,39.32,0,0,0-4.58,3.94,54.92,54.92,0,0,0-4.35,4.83,64.53,64.53,0,0,0-4,5.57q-1.9,3-3.61,6.3t-3.23,7q-1.51,3.67-2.8,7.65t-2.35,8.22q-1.06,4.25-1.89,8.79t-1.45,9.34q-.61,4.77-.9,9.66t-.26,9.87q0,5,.37,10.07t1,10.26q1,7.59,2.48,14.44a123.87,123.87,0,0,0,3.58,12.93,98.66,98.66,0,0,0,4.68,11.47,81.71,81.71,0,0,0,5.78,10.06,57.93,57.93,0,0,0,7.17,8.62,59.45,59.45,0,0,0,8.76,7.14,68.23,68.23,0,0,0,10.38,5.68,85.35,85.35,0,0,0,12,4.24q2.73.79,5.62,1.42t5.94,1.1q3.05.47,6.28.76t6.62.41h1.52q3.61.1,7.09,0t6.85-.46q3.37-.34,6.61-.9t6.38-1.35a62.17,62.17,0,0,0,6-1.79,53.06,53.06,0,0,0,5.5-2.3,46.73,46.73,0,0,0,5-2.81,42.91,42.91,0,0,0,4.47-3.33,23.18,23.18,0,0,0,3.6-3.88,20.48,20.48,0,0,0,2.47-4.46,21.75,21.75,0,0,0,1.34-5,27.28,27.28,0,0,0,.19-5.64,14.2,14.2,0,0,0,0-2.42,11.37,11.37,0,0,0-.42-2.18,10,10,0,0,0-.81-1.95,9.84,9.84,0,0,0-1.19-1.71,20.55,20.55,0,0,0-1.45-1.56q-.79-.76-1.69-1.5t-1.92-1.44q-1-.7-2.13-1.37t-2.3-1.32q-1.18-.65-2.43-1.29t-2.57-1.26q-1.32-.62-2.71-1.23T236,320.72q-1.36-.68-2.7-1.43t-2.65-1.56q-1.31-.82-2.6-1.7t-2.55-1.9q-1.24-1-2.39-2.08t-2.23-2.27q-1.08-1.19-2.07-2.49a21.93,21.93,0,0,1-1.87-2.75,25.35,25.35,0,0,1-1.52-3.14,30.6,30.6,0,0,1-1.18-3.53,38,38,0,0,1-.83-3.91q-.4-2.05-.72-4.28t-.54-4.62q-.22-2.4-.35-5t-.15-5.32q-.05-2.75-.14-5.55t-.2-5.66q-.12-2.86-.27-5.76t-.35-5.86q-.22-3-.51-5.91t-.64-5.89q-.35-2.94-.77-5.86t-.9-5.82q-.49-2.93-1.15-5.69t-1.53-5.37q-.86-2.61-1.9-5.06T201,207.61a40.39,40.39,0,0,0-2.7-4.35,37.2,37.2,0,0,0-3.18-3.88,36,36,0,0,0-3.66-3.39,36.92,36.92,0,0,0-4.15-2.89,28.24,28.24,0,0,0-4.19-2.1,33.41,33.41,0,0,0-4.71-1.49,42,42,0,0,0-5.24-.89,54.84,54.84,0,0,0-5.77-.31M41.9,254.45a38.55,38.55,0,0,0-3.85.13,33.09,33.09,0,0,0-3.61.5,29,29,0,0,0-3.36.87,26.16,26.16,0,0,0-3.1,1.23,20.93,20.93,0,0,0-2.84,1.62,17.57,17.57,0,0,0-2.38,1.94,15.72,15.72,0,0,0-3.37,4.83,29.51,29.51,0,0,0-1.14,2.74q-.5,1.4-.88,2.87t-.61,3q-.24,1.53-.35,3.11t-.14,3.16q0,1.58,0,3.16t.17,3.17q.12,1.58.33,3.18t.39,3.08q.19,1.49.35,2.88t.31,2.69q.14,1.3.26,2.51T18.5,304q.23,1.53.51,3.23t.59,3.58q.32,1.87.67,3.92t.74,4.08q.38,2,.8,4.12t.86,4.16q.45,2.09.93,4.2t1,4.14q.51,2,1,4t1.08,3.87q.55,1.9,1.13,3.75T29,350.53q.58,1.63,1.17,3.07t1.18,2.66q.59,1.23,1.18,2.25a17.24,17.24,0,0,0,1.19,1.9,16.18,16.18,0,0,0,3.09,3.22,17.39,17.39,0,0,0,1.92,1.31q1,.59,2.14,1.11t2.32,1q1.21.44,2.5.8t2.68.62q1.09.22,2.23.4t2.33.31q1.19.13,2.44.22t2.55.14l.72,0,.72,0h1.47q1.74,0,3.52-.07t3.6-.2q1.82-.13,3.69-.33t3.79-.47q2.09-.22,4.19-.57t4.2-.81q2.11-.47,4.21-1.05t4.22-1.31q2.11-.72,4.06-1.53t3.75-1.71q1.8-.9,3.46-1.87t3.18-2a34.47,34.47,0,0,0,2.83-2.22A28.58,28.58,0,0,0,112,353a24.46,24.46,0,0,0,2-2.53,21.91,21.91,0,0,0,1.57-2.68,11.71,11.71,0,0,0,1-2.8,11.2,11.2,0,0,0,.22-2.9,13,13,0,0,0-.53-3,17.22,17.22,0,0,0-1.26-3.06q-.59-1.21-1.18-2.28t-1.16-2q-.58-.93-1.14-1.71t-1.11-1.42l-1.07-1.23-1-1.14-1-1.05-1-1-.88-.92c-.29-.31-.57-.61-.83-.92s-.52-.61-.76-.92-.46-.61-.67-.91a6.79,6.79,0,0,1-.6-1,9.58,9.58,0,0,1-.51-1.2,13.33,13.33,0,0,1-.4-1.41q-.17-.76-.29-1.61a7.46,7.46,0,0,1,0-1.67,6.63,6.63,0,0,1,.33-1.57,7,7,0,0,1,.71-1.47,8.61,8.61,0,0,1,1.09-1.38l1.29-1.34,1.31-1.37,1.34-1.41,1.36-1.45A19.54,19.54,0,0,0,110,302.2a18.6,18.6,0,0,0,1.1-1.62,18.3,18.3,0,0,0,.91-1.72,18.62,18.62,0,0,0,.73-1.82,7.06,7.06,0,0,0,.32-2,9.81,9.81,0,0,0-.23-2.25,15.34,15.34,0,0,0-.78-2.51,24.69,24.69,0,0,0-1.34-2.77,14.72,14.72,0,0,0-1.06-2,21.31,21.31,0,0,0-1.49-2.06q-.85-1-1.91-2.13t-2.32-2.2q-1.26-1.12-2.65-2.23t-2.91-2.22q-1.52-1.1-3.18-2.2t-3.47-2.18q-1.8-1.06-3.69-2.1t-3.87-2.05q-2-1-4-2t-4.23-1.9q-2.16-.93-4.32-1.75T67.23,259q-2.16-.71-4.32-1.31t-4.32-1.08q-2.17-.51-4.29-.89T50.09,255q-2.08-.27-4.13-.42t-4.06-.18m265.92-191-2,.06-2.07.11-2.13.16-2.18.21a40.56,40.56,0,0,0-8.16,2.08,38.52,38.52,0,0,0-7.38,3.68A41.66,41.66,0,0,0,277.28,75a50.28,50.28,0,0,0-5.81,6.79,87,87,0,0,0-5.1,8q-2.39,4.26-4.49,9t-3.9,10q-1.8,5.2-3.31,10.88t-2.76,11.66q-1.22,6-2.15,12.29t-1.56,12.9q-.64,6.58-1,13.48t-.49,13.78q-.14,6.88-.08,13.8t.32,13.82q.26,6.9.73,13.85t1.18,14.06q.71,7,1.65,14t2.12,13.85q1.18,6.89,2.59,13.76t3,13.3q1.61,6.43,3.42,12.49t3.82,11.71q2,5.66,4.23,11t4.59,10.1q2.39,4.78,5,9t5.37,8q2.78,3.76,5.74,7a48.2,48.2,0,0,0,6.16,5.77,38.85,38.85,0,0,0,6.61,4.18,35,35,0,0,0,7.07,2.61,36.09,36.09,0,0,0,7.53,1.05q4.27.15,8.13,0t7.31-.53a65.19,65.19,0,0,0,6.5-1.07,47.48,47.48,0,0,0,5.68-1.61q2.64-1,5.15-2t4.92-2.05q2.4-1,4.69-2.15t4.46-2.25q2.15-1.15,4.33-2.26t4.39-2.18q2.21-1.07,4.43-2.11t4.46-2a36.33,36.33,0,0,1,4.81-1.73,45.65,45.65,0,0,1,5.39-1.17,58.91,58.91,0,0,1,6-.62q3.13-.17,6.53-.07,3,.09,5.71.38t5.09.79a38.61,38.61,0,0,1,4.47,1.19A28.52,28.52,0,0,1,424,357.4q1.76.91,3.55,1.87t3.62,2q1.83,1,3.68,2.09t3.74,2.19q1.88,1.14,3.93,2.23t4.26,2.11q2.21,1,4.59,2t4.94,1.88a53.19,53.19,0,0,0,5.59,1.67q3,.74,6.56,1.29t7.54.9q4,.35,8.54.51a54.21,54.21,0,0,0,9.78-.53,48.32,48.32,0,0,0,17.79-6.32,54.73,54.73,0,0,0,8-5.84,100.66,100.66,0,0,0,7.41-7.23q3.58-3.86,6.87-8.2t6.33-9.21q3-4.87,5.78-10.26t5.17-11.14q2.45-5.75,4.61-11.83t4-12.54q1.89-6.46,3.47-13.27t2.91-13.57q1.33-6.76,2.37-13.43T571,241.47q.78-6.62,1.29-13.15.46-5.89.75-12.08t.43-12.73q.13-6.55.1-13.41T573.28,176q-.18-7.25-.71-14.29t-1.38-13.91q-.86-6.87-2-13.5t-2.69-13.07q-1.54-6.43-3.55-12.37a121,121,0,0,0-4.5-11.41A106,106,0,0,0,553,87a95.69,95.69,0,0,0-6.41-9.42,48,48,0,0,0-7.43-7.75,41.32,41.32,0,0,0-8.61-5.5,42,42,0,0,0-9.77-3.23,50.21,50.21,0,0,0-10.88-.94,72.86,72.86,0,0,0-8,.57,60.05,60.05,0,0,0-7.35,1.41,51.06,51.06,0,0,0-6.72,2.23,45.45,45.45,0,0,0-6.08,3.05Q478.86,69.18,476,71t-5.64,3.68q-2.8,1.87-5.57,3.8T459.3,82.4q-2.77,2-5.63,3.93t-5.81,3.72q-3,1.81-6,3.51t-6.17,3.32a52.83,52.83,0,0,1-6.57,2.83,60.71,60.71,0,0,1-7.2,2,72.46,72.46,0,0,1-7.82,1.26q-4.06.44-8.44.49-5.57.06-10.45-.32a79.25,79.25,0,0,1-9.1-1.22,54.09,54.09,0,0,1-7.78-2.11,37.86,37.86,0,0,1-6.47-3q-2.91-1.75-5.7-3.56t-5.43-3.69q-2.64-1.88-5.14-3.83t-4.84-4q-2.37-2-4.85-3.93t-5.06-3.65q-2.58-1.75-5.26-3.36t-5.47-3.05a31.4,31.4,0,0,0-4.63-2,39.74,39.74,0,0,0-5.26-1.37,52.07,52.07,0,0,0-5.89-.77q-3.1-.24-6.51-.17"/></g></svg>